<svg width="26.666016" height="32.000488" viewBox="0 0 26.666 32.0005" fill="none" xmlns="http://www.w3.org/2000/svg" xmlns:xlink="http://www.w3.org/1999/xlink">
	<desc>
			Created with Pixso.
	</desc>
	<defs/>
	<path id="Vector" d="M25.334 32.0005L13.334 32.0005C12.9805 32.0005 12.6406 31.8599 12.3906 31.6099C12.1406 31.3599 12 31.0205 12 30.667L12 28.0005C12 27.6465 12.1406 27.3076 12.3906 27.0576C12.6406 26.8076 12.9805 26.667 13.334 26.667L25.334 26.667C25.6875 26.667 26.0254 26.8076 26.2754 27.0576C26.5254 27.3076 26.666 27.6465 26.666 28.0005L26.666 30.667C26.666 31.0205 26.5254 31.3599 26.2754 31.6099C26.0254 31.8599 25.6875 32.0005 25.334 32.0005Z" fill="#D6B1FF" fill-opacity="1.000000" fill-rule="nonzero"/>
	<path id="Vector" d="M25.334 0L1.33398 0C0.980469 0 0.640625 0.140625 0.390625 0.390625C0.140625 0.640625 0 0.979492 0 1.3335L0 4C0 4.35352 0.140625 4.69287 0.390625 4.94287C0.640625 5.19287 0.980469 5.3335 1.33398 5.3335L25.334 5.3335C25.6875 5.3335 26.0254 5.19287 26.2754 4.94287C26.5254 4.69287 26.666 4.35352 26.666 4L26.666 1.3335C26.666 0.979492 26.5254 0.640625 26.2754 0.390625C26.0254 0.140625 25.6875 0 25.334 0Z" fill="#2EC5CE" fill-opacity="1.000000" fill-rule="nonzero"/>
	<path id="Vector" d="M25.334 8L1.33398 8C0.980469 8 0.640625 8.14062 0.390625 8.39062C0.140625 8.64062 0 8.97949 0 9.3335L0 22.6665C0 23.0205 0.140625 23.3594 0.390625 23.6094C0.640625 23.8594 0.980469 24 1.33398 24L25.334 24C25.6875 24 26.0254 23.8594 26.2754 23.6094C26.5254 23.3594 26.666 23.0205 26.666 22.6665L26.666 9.3335C26.666 8.97949 26.5254 8.64062 26.2754 8.39062C26.0254 8.14062 25.6875 8 25.334 8Z" fill="#8C30F5" fill-opacity="1.000000" fill-rule="nonzero"/>
</svg>
