<svg width="32.000000" height="32.000000" viewBox="0 0 32 32" fill="none" xmlns="http://www.w3.org/2000/svg" xmlns:xlink="http://www.w3.org/1999/xlink">
	<desc>
			Created with Pixso.
	</desc>
	<defs>
		<clipPath id="clip1_125">
			<rect id="Feature Icons / 05" width="32.000000" height="32.000000" fill="white" fill-opacity="0"/>
		</clipPath>
	</defs>
	<rect id="Feature Icons / 05" width="32.000000" height="32.000000" fill="#FFFFFF" fill-opacity="0"/>
	<g clip-path="url(#clip1_125)">
		<path id="Vector" d="M6.66797 1.33301L2.66797 1.33301C2.31445 1.33301 1.97461 1.47363 1.72461 1.72363C1.47461 1.97363 1.33398 2.3125 1.33398 2.6665L1.33398 29.333C1.33398 29.6865 1.47461 30.0259 1.72461 30.2759C1.97461 30.5259 2.31445 30.6665 2.66797 30.6665L6.66797 30.6665L6.66797 1.33301Z" fill="#D6B1FF" fill-opacity="1.000000" fill-rule="nonzero"/>
		<path id="Vector" d="M9.33398 30.6665L22.668 30.6665L22.668 1.33301L9.33398 1.33301L9.33398 30.6665ZM16 25.333C15.6465 25.333 15.3086 25.1924 15.0586 24.9424C14.8086 24.6924 14.668 24.3535 14.668 23.9995C14.668 23.646 14.8086 23.3071 15.0586 23.0566C15.3086 22.8066 15.6465 22.6665 16 22.6665C16.3535 22.6665 16.6934 22.8066 16.9434 23.0566C17.1934 23.3071 17.334 23.646 17.334 23.9995C17.334 24.3535 17.1934 24.6924 16.9434 24.9424C16.6934 25.1924 16.3535 25.333 16 25.333ZM16 6.6665C16.3535 6.6665 16.6934 6.80664 16.9434 7.05664C17.1934 7.30713 17.334 7.646 17.334 7.99951C17.334 8.35352 17.1934 8.69238 16.9434 8.94238C16.6934 9.19238 16.3535 9.33301 16 9.33301C15.6465 9.33301 15.3086 9.19238 15.0586 8.94238C14.8086 8.69238 14.668 8.35352 14.668 7.99951C14.668 7.646 14.8086 7.30713 15.0586 7.05664C15.3086 6.80664 15.6465 6.6665 16 6.6665ZM16 14.6665C16.3535 14.6665 16.6934 14.8066 16.9434 15.0566C17.1934 15.3071 17.334 15.646 17.334 15.9995C17.334 16.3535 17.1934 16.6924 16.9434 16.9424C16.6934 17.1924 16.3535 17.333 16 17.333C15.6465 17.333 15.3086 17.1924 15.0586 16.9424C14.8086 16.6924 14.668 16.3535 14.668 15.9995C14.668 15.646 14.8086 15.3071 15.0586 15.0566C15.3086 14.8066 15.6465 14.6665 16 14.6665Z" fill="#8C30F5" fill-opacity="1.000000" fill-rule="nonzero"/>
		<path id="Vector" d="M29.334 1.33301L25.334 1.33301L25.334 30.6665L29.334 30.6665C29.6875 30.6665 30.0273 30.5259 30.2773 30.2759C30.5273 30.0259 30.668 29.6865 30.668 29.333L30.668 2.6665C30.668 2.3125 30.5273 1.97363 30.2773 1.72363C30.0273 1.47363 29.6875 1.33301 29.334 1.33301Z" fill="#2EC5CE" fill-opacity="1.000000" fill-rule="nonzero"/>
	</g>
</svg>
