<svg width="32.000000" height="32.000000" viewBox="0 0 32 32" fill="none" xmlns="http://www.w3.org/2000/svg" xmlns:xlink="http://www.w3.org/1999/xlink">
	<desc>
			Created with Pixso.
	</desc>
	<defs>
		<clipPath id="clip1_132">
			<rect id="Feature Icons / 06" width="32.000000" height="32.000000" fill="white" fill-opacity="0"/>
		</clipPath>
	</defs>
	<rect id="Feature Icons / 06" width="32.000000" height="32.000000" fill="#FFFFFF" fill-opacity="0"/>
	<g clip-path="url(#clip1_132)">
		<path id="Vector" d="M31.4668 1.59961C31.1992 1.33301 30.666 1.33301 30.2656 1.33301L22.666 3.59961L22.666 30.3999L31.0664 27.9995C31.5996 27.8662 32 27.333 32 26.6665L32 2.6665C32 2.26611 31.8652 1.86621 31.4668 1.59961Z" fill="#D6B1FF" fill-opacity="1.000000" fill-rule="nonzero"/>
		<path id="Vector" d="M20 3.6001L12 1.6001L12 28.3999L20 30.3999L20 3.6001Z" fill="#2EC5CE" fill-opacity="1.000000" fill-rule="nonzero"/>
		<path id="Vector" d="M9.33398 1.6001L0.933594 4C0.400391 4.2666 0 4.80029 0 5.3335L0 29.3335C0 29.7334 0.132812 30.1333 0.533203 30.3999C0.800781 30.5332 1.06641 30.667 1.33398 30.667L1.73242 30.667L9.33398 28.3999L9.33398 1.6001Z" fill="#8C30F5" fill-opacity="1.000000" fill-rule="nonzero"/>
	</g>
</svg>
