<svg width="32.000000" height="32.000000" viewBox="0 0 32 32" fill="none" xmlns="http://www.w3.org/2000/svg" xmlns:xlink="http://www.w3.org/1999/xlink">
	<desc>
			Created with Pixso.
	</desc>
	<defs>
		<clipPath id="clip1_139">
			<rect id="Feature Icons / 07" width="32.000000" height="32.000000" fill="white" fill-opacity="0"/>
		</clipPath>
	</defs>
	<rect id="Feature Icons / 07" width="32.000000" height="32.000000" fill="#FFFFFF" fill-opacity="0"/>
	<g clip-path="url(#clip1_139)">
		<path id="Vector" d="M12 13.333L2.66797 13.333C2.31445 13.333 1.97461 13.1924 1.72461 12.9424C1.47461 12.6924 1.33398 12.3535 1.33398 11.9995L1.33398 2.6665C1.33398 2.3125 1.47461 1.97363 1.72461 1.72363C1.97461 1.47363 2.31445 1.33301 2.66797 1.33301L12 1.33301C12.3535 1.33301 12.6934 1.47363 12.9434 1.72363C13.1934 1.97363 13.334 2.3125 13.334 2.6665L13.334 11.9995C13.334 12.3535 13.1934 12.6924 12.9434 12.9424C12.6934 13.1924 12.3535 13.333 12 13.333Z" fill="#8C30F5" fill-opacity="1.000000" fill-rule="nonzero"/>
		<path id="Vector" d="M12 30.667L2.66797 30.667C2.31445 30.667 1.97461 30.5264 1.72461 30.2764C1.47461 30.0264 1.33398 29.6875 1.33398 29.3335L1.33398 20.0005C1.33398 19.6465 1.47461 19.3076 1.72461 19.0576C1.97461 18.8076 2.31445 18.667 2.66797 18.667L12 18.667C12.3535 18.667 12.6934 18.8076 12.9434 19.0576C13.1934 19.3076 13.334 19.6465 13.334 20.0005L13.334 29.3335C13.334 29.6875 13.1934 30.0264 12.9434 30.2764C12.6934 30.5264 12.3535 30.667 12 30.667Z" fill="#8C30F5" fill-opacity="1.000000" fill-rule="nonzero"/>
		<path id="Vector" d="M17.334 2.66699L30.668 2.66699L30.668 5.3335L17.334 5.3335L17.334 2.66699Z" fill="#2EC5CE" fill-opacity="1.000000" fill-rule="evenodd"/>
		<path id="Vector" d="M17.334 20L30.668 20L30.668 22.6665L17.334 22.6665L17.334 20Z" fill="#2EC5CE" fill-opacity="1.000000" fill-rule="evenodd"/>
		<path id="Vector" d="M17.334 26.667L30.668 26.667L30.668 29.3335L17.334 29.3335L17.334 26.667Z" fill="#D6B1FF" fill-opacity="1.000000" fill-rule="evenodd"/>
		<path id="Vector" d="M17.334 9.33301L30.668 9.33301L30.668 11.9995L17.334 11.9995L17.334 9.33301Z" fill="#D6B1FF" fill-opacity="1.000000" fill-rule="evenodd"/>
	</g>
</svg>
