<svg width="32.000000" height="32.000000" viewBox="0 0 32 32" fill="none" xmlns="http://www.w3.org/2000/svg" xmlns:xlink="http://www.w3.org/1999/xlink">
	<desc>
			Created with Pixso.
	</desc>
	<defs>
		<clipPath id="clip1_149">
			<rect id="Feature Icons / 08" width="32.000000" height="32.000000" fill="white" fill-opacity="0"/>
		</clipPath>
	</defs>
	<rect id="Feature Icons / 08" width="32.000000" height="32.000000" fill="#FFFFFF" fill-opacity="0"/>
	<g clip-path="url(#clip1_149)">
		<path id="Vector" d="M15.209 0.175781L0.78125 6.91602C0.683594 6.96045 0.601562 7.03271 0.542969 7.12305C0.486328 7.21338 0.455078 7.31836 0.455078 7.42578C0.455078 7.5332 0.486328 7.63818 0.544922 7.72852C0.601562 7.81836 0.685547 7.89014 0.783203 7.93457L15.3223 14.6255C15.752 14.8228 16.248 14.8228 16.6777 14.6255L31.2168 7.93457C31.3145 7.89014 31.3984 7.81885 31.457 7.72852C31.5156 7.63867 31.5469 7.53369 31.5469 7.42627C31.5469 7.31885 31.5156 7.21387 31.459 7.12305C31.4004 7.03271 31.3184 6.96094 31.2207 6.91602L16.793 0.175781C16.5449 0.0600586 16.2734 0 16 0C15.7266 0 15.457 0.0600586 15.209 0.175781Z" fill="#8C30F5" fill-opacity="1.000000" fill-rule="nonzero"/>
		<g opacity="0.640000">
			<path id="Vector" d="M31.2188 15.5679L28.2383 14.1758C28.0254 14.0762 27.793 14.0239 27.5566 14.0234C27.3223 14.0229 27.0898 14.0732 26.875 14.1719L16.6758 18.8652C16.4648 18.9629 16.2324 19.0137 16 19.0137C15.7656 19.0137 15.5332 18.9629 15.3223 18.8652L5.12109 14.1719C4.9082 14.0737 4.67578 14.0229 4.43945 14.0239C4.20508 14.0244 3.97266 14.0762 3.75977 14.1758L0.779297 15.5679C0.681641 15.6128 0.599609 15.6846 0.541016 15.7749C0.484375 15.8657 0.453125 15.9707 0.453125 16.0781C0.453125 16.1855 0.484375 16.2905 0.542969 16.3804C0.601562 16.4707 0.683594 16.542 0.78125 16.5864L15.3223 23.2759C15.5332 23.374 15.7656 23.4248 16 23.4248C16.2324 23.4248 16.4648 23.374 16.6758 23.2759L31.2168 16.5864C31.3145 16.542 31.3965 16.4707 31.4551 16.3804C31.5137 16.2905 31.5449 16.1855 31.5449 16.0781C31.5449 15.9707 31.5137 15.8657 31.457 15.7749C31.3984 15.6846 31.3164 15.6128 31.2188 15.5679Z" fill="#D6B1FF" fill-opacity="1.000000" fill-rule="nonzero"/>
		</g>
		<path id="Vector" d="M31.2188 24.144L28.2402 22.752C28.0254 22.6523 27.793 22.6006 27.5586 22.5996C27.3223 22.5991 27.0898 22.6494 26.875 22.748L16.6777 27.4399C16.4648 27.5376 16.2324 27.5884 16 27.5884C15.7656 27.5884 15.5352 27.5376 15.3223 27.4399L5.12305 22.7466C4.9082 22.6484 4.67578 22.5981 4.43945 22.5986C4.20508 22.5991 3.97266 22.6514 3.75977 22.751L0.779297 24.144C0.681641 24.189 0.599609 24.2612 0.542969 24.3516C0.484375 24.4414 0.455078 24.5464 0.455078 24.6538C0.455078 24.7607 0.486328 24.8652 0.544922 24.9556C0.601562 25.0454 0.685547 25.1167 0.78125 25.1616L15.3223 31.8521C15.752 32.0493 16.248 32.0493 16.6777 31.8521L31.2168 25.1616C31.3145 25.1167 31.3965 25.0454 31.4551 24.9556C31.5137 24.8652 31.543 24.7607 31.5449 24.6538C31.5449 24.5464 31.5137 24.4414 31.457 24.3516C31.3984 24.2612 31.3164 24.189 31.2188 24.144Z" fill="#2EC5CE" fill-opacity="1.000000" fill-rule="nonzero"/>
	</g>
</svg>
