<svg width="102.669922" height="32.021484" viewBox="0 0 102.67 32.0215" fill="none" xmlns="http://www.w3.org/2000/svg" xmlns:xlink="http://www.w3.org/1999/xlink">
	<desc>
			Created with Pixso.
	</desc>
	<defs/>
	<path id="Vector" d="M29.5469 22.7012C29.3867 22.3115 29.2344 21.9014 29.0723 21.5518L28.3262 19.8818L28.2949 19.8516C26.0742 15.0518 23.7012 10.1719 21.1855 5.37109L21.0859 5.17188C20.832 4.70117 20.5801 4.18164 20.3184 3.70117C19.9941 3.13184 19.6816 2.52148 19.166 1.94141C18.6641 1.33496 18.0332 0.845703 17.3164 0.509766C16.6016 0.173828 15.8184 0 15.0273 0C14.2344 0 13.4512 0.173828 12.7363 0.509766C12.0195 0.845703 11.3887 1.33496 10.8867 1.94141C10.4121 2.52148 10.0586 3.13184 9.73438 3.70117C9.48242 4.22168 9.23047 4.73145 8.96875 5.20117L8.86719 5.40137C6.39258 10.2012 3.97852 15.0811 1.75781 19.8818L1.69727 19.9414C1.47461 20.4619 1.21289 21.001 0.960938 21.5811C0.798828 21.9316 0.636719 22.3115 0.474609 22.7314C0.0390625 23.8311 -0.0996094 25.0244 0.0703125 26.1943C0.242188 27.3633 0.71875 28.4678 1.45312 29.3994C2.18555 30.3311 3.15234 31.0576 4.25586 31.5068C5.35938 31.9561 6.5625 32.1123 7.74609 31.9619C8.88086 31.8135 9.97266 31.4395 10.957 30.8613C12.2695 30.1318 13.5312 29.0713 14.9453 27.541C16.3594 29.0713 17.6523 30.1318 18.9336 30.8711C20.168 31.5879 21.5645 31.9844 22.9941 32.0215C24.6484 32.0283 26.252 31.4414 27.5039 30.3701C28.7578 29.2988 29.5762 27.8145 29.8105 26.1914C30.0801 25.0254 29.9883 23.8057 29.5469 22.6914L29.5469 22.7012ZM15.0469 24.3613C13.3105 22.1611 12.1797 20.1416 11.7949 18.4111C11.6367 17.7705 11.6016 17.1055 11.6934 16.4512C11.7656 15.9414 11.957 15.4912 12.2188 15.1113C12.8262 14.2412 13.8848 13.7012 15.0469 13.7012C15.5977 13.6846 16.1445 13.8037 16.6387 14.0479C17.1328 14.293 17.5566 14.6543 17.875 15.1016C18.1367 15.501 18.3281 15.9414 18.3887 16.4512C18.4902 17.0312 18.4492 17.7012 18.2891 18.4111C17.9043 20.1113 16.7734 22.1514 15.0469 24.3613ZM27.9121 25.8418C27.7969 26.665 27.4668 27.4453 26.9531 28.1035C26.4395 28.7607 25.7598 29.2744 24.9824 29.5918C24.2148 29.9111 23.3672 30.001 22.5391 29.9111C21.7324 29.8115 20.9238 29.5518 20.0957 29.0713C18.7207 28.2295 17.4844 27.1846 16.4297 25.9717C18.5508 23.3711 19.834 21.001 20.3184 18.8916C20.5508 17.8916 20.5801 16.9912 20.4805 16.1611C20.3535 15.375 20.0566 14.624 19.6113 13.9619C19.1016 13.2432 18.4219 12.6592 17.6309 12.2617C16.8398 11.8633 15.9629 11.665 15.0762 11.6816C13.209 11.6816 11.543 12.541 10.5332 13.9512C10.0781 14.6123 9.78516 15.3691 9.67383 16.1611C9.54297 17.001 9.57422 17.9316 9.83594 18.8916C10.3203 21.001 11.6328 23.4014 13.7246 25.9912C12.6875 27.2275 11.4473 28.2822 10.0586 29.1113C9.2207 29.5918 8.42188 29.8418 7.61523 29.9414C6.35742 30.1006 5.08984 29.7627 4.08398 29.001C3.07812 28.2383 2.41602 27.1143 2.24219 25.8711C2.14062 25.0713 2.21289 24.2715 2.53516 23.3711C2.63672 23.0518 2.78711 22.7314 2.94922 22.3516C3.17188 21.8311 3.43359 21.291 3.68555 20.751L3.72656 20.6816C5.9082 15.9111 8.29102 11.041 10.7656 6.27148L10.8652 6.07129C11.1191 5.5918 11.3711 5.08105 11.6328 4.60156C11.8965 4.0918 12.1797 3.60156 12.543 3.20117C12.8574 2.8291 13.25 2.53027 13.6953 2.3252C14.1387 2.12012 14.623 2.01367 15.1133 2.01367C15.6016 2.01367 16.0859 2.12012 16.5312 2.3252C16.9746 2.53027 17.3672 2.8291 17.6816 3.20117C18.0352 3.60156 18.3281 4.0918 18.5918 4.60156C18.8438 5.08105 19.0957 5.60156 19.3594 6.07129L19.459 6.27148C21.9238 11.041 24.3066 15.9111 26.5273 20.6816L26.5586 20.7119C26.8203 21.2314 27.043 21.8115 27.2949 22.3115C27.457 22.7012 27.6191 23.0117 27.7207 23.3418C27.9121 24.2412 28.0117 25.041 27.9121 25.8418ZM41.9688 24.1416C41.207 24.1523 40.4531 23.9941 39.7637 23.6768C39.0723 23.3604 38.4629 22.8936 37.9785 22.3115C36.8926 21.0713 36.3164 19.4727 36.3633 17.8311C36.3477 16.1543 36.9414 14.5283 38.0391 13.251C38.5469 12.6621 39.1797 12.1904 39.8926 11.8691C40.6035 11.5469 41.377 11.3848 42.1602 11.3916C42.8965 11.3711 43.625 11.5371 44.2793 11.873C44.9316 12.209 45.4883 12.7041 45.8965 13.3115L45.998 11.7412L48.9453 11.7412L48.9453 23.8213L45.9863 23.8213L45.8867 22.0615C45.4668 22.71 44.8867 23.2412 44.1992 23.6055C43.5137 23.9697 42.7461 24.1543 41.9688 24.1416ZM42.7363 21.2617C43.3223 21.2617 43.8359 21.1016 44.3203 20.8115C44.7656 20.4912 45.1289 20.0713 45.4121 19.5615C45.6641 19.0518 45.7949 18.4414 45.7949 17.7617C45.834 17.1709 45.7188 16.5801 45.459 16.0469C45.1973 15.5146 44.8027 15.0576 44.3105 14.7217C43.8379 14.4297 43.293 14.2754 42.7363 14.2754C42.1797 14.2754 41.6328 14.4297 41.1602 14.7217C40.7168 15.041 40.3516 15.4619 40.0703 15.9717C39.8027 16.5342 39.6719 17.1504 39.6855 17.7715C39.6465 18.3623 39.7637 18.9531 40.0234 19.4854C40.2832 20.0186 40.6777 20.4756 41.1699 20.8115C41.6445 21.1016 42.1602 21.2617 42.7363 21.2617ZM53.9941 8.48145C53.9941 8.83105 53.9336 9.15137 53.7734 9.41113C53.6113 9.66113 53.3887 9.8916 53.0957 10.0518C52.8027 10.2119 52.4902 10.2715 52.168 10.2715C51.8438 10.2715 51.5215 10.2119 51.2285 10.0518C50.9512 9.89844 50.7188 9.67871 50.5508 9.41113C50.3945 9.12695 50.3184 8.80566 50.3301 8.48145C50.3301 8.12109 50.4004 7.80176 50.5508 7.55176C50.7129 7.25098 50.9453 7.07129 51.2285 6.91113C51.5215 6.75098 51.834 6.68164 52.168 6.68164C52.4883 6.67383 52.8066 6.74902 53.0898 6.90039C53.373 7.05078 53.6113 7.27148 53.7832 7.54102C53.9297 7.83301 54.002 8.15527 53.9941 8.48145ZM50.5625 23.7812L50.5625 11.7217L53.7734 11.7217L53.7734 23.8018L50.5508 23.8018L50.5625 23.7812ZM62.3555 14.8818L62.3555 14.9219C62.2051 14.8516 62.002 14.8213 61.8516 14.791C61.6484 14.751 61.4883 14.751 61.2949 14.751C60.3965 14.751 59.7207 15.0117 59.2754 15.5518C58.791 16.1016 58.5703 16.8711 58.5703 17.8613L58.5703 23.791L55.3477 23.791L55.3477 11.7119L58.3066 11.7119L58.4082 13.541C58.7305 12.9014 59.1152 12.4219 59.6602 12.0615C60.2031 11.7119 60.8418 11.5371 61.4883 11.5615C61.7207 11.5615 61.9414 11.5811 62.1348 11.6211C62.2344 11.6514 62.2949 11.6514 62.3555 11.6816L62.3555 14.8818ZM63.6484 23.7812L63.6484 6.76172L66.8594 6.76172L66.8594 13.2617C67.3145 12.6816 67.8301 12.2314 68.4746 11.8818C69.498 11.3848 70.6602 11.2441 71.7754 11.4814C72.8887 11.7188 73.8887 12.3213 74.6152 13.1914C75.7031 14.4336 76.2812 16.0371 76.2305 17.6816C76.248 19.3584 75.6523 20.9844 74.5547 22.2617C74.0469 22.8506 73.4141 23.3232 72.7031 23.6445C71.9902 23.9658 71.2168 24.1289 70.4336 24.1211C69.6992 24.1416 68.9688 23.9756 68.3164 23.6396C67.6621 23.3037 67.1055 22.8086 66.6992 22.2012L66.5977 23.7715L63.6484 23.8018L63.6484 23.7812ZM69.8594 21.2617C70.4336 21.2617 70.9492 21.1016 71.4336 20.8115C71.8789 20.4912 72.2422 20.0713 72.5254 19.5615C72.7871 19.0518 72.9082 18.4414 72.9082 17.7617C72.9082 17.0918 72.7871 16.4814 72.5254 15.9717C72.2598 15.4795 71.8867 15.0527 71.4336 14.7217C70.9609 14.4297 70.416 14.2754 69.8594 14.2754C69.3027 14.2754 68.7559 14.4297 68.2832 14.7217C67.8301 15.041 67.4766 15.4619 67.1836 15.9717C66.916 16.5342 66.7852 17.1504 66.7988 17.7715C66.7598 18.3623 66.875 18.9531 67.1367 19.4854C67.3965 20.0186 67.791 20.4756 68.2832 20.8115C68.7578 21.1016 69.2734 21.2617 69.8594 21.2617ZM77.4434 23.791L77.4434 11.7119L80.4004 11.7119L80.502 13.2812C80.875 12.6797 81.4023 12.1875 82.0293 11.8545C82.6582 11.5225 83.3652 11.3623 84.0762 11.3916C84.8906 11.3779 85.6914 11.6016 86.377 12.0352C87.0625 12.4697 87.6055 13.0938 87.9336 13.8311C88.2871 14.5918 88.4805 15.5312 88.4805 16.5811L88.4805 23.8213L85.2578 23.8213L85.2578 17.001C85.2578 16.1611 85.0664 15.501 84.6836 15.0117C84.2988 14.5312 83.7734 14.2715 83.1074 14.2715C82.623 14.2715 82.1992 14.3711 81.8242 14.5918C81.4727 14.8213 81.1797 15.1113 80.957 15.5215C80.7324 15.9355 80.6211 16.4014 80.6328 16.8711L80.6328 23.791L77.4434 23.791ZM90.0859 23.791L90.0859 6.75098L93.3066 6.75098L93.3066 13.251C93.7422 12.668 94.3105 12.1934 94.9648 11.8652C95.6191 11.5371 96.3398 11.3652 97.0723 11.3613C97.834 11.3506 98.5879 11.5088 99.2773 11.8262C99.9688 12.1426 100.578 12.6094 101.062 13.1914C102.143 14.4336 102.715 16.0322 102.668 17.6719C102.686 19.3486 102.09 20.9746 100.99 22.251C100.484 22.8408 99.8516 23.3125 99.1387 23.6338C98.4277 23.9551 97.6543 24.1182 96.8711 24.1113C96.1348 24.1318 95.4062 23.9658 94.752 23.6299C94.0996 23.2939 93.543 22.7988 93.1348 22.1914L93.0449 23.7617L90.0859 23.791ZM96.3262 21.2617C96.9121 21.2617 97.4258 21.1016 97.9004 20.8115C98.3555 20.4912 98.709 20.0713 99.002 19.5615C99.2539 19.0518 99.3848 18.4414 99.3848 17.7617C99.4258 17.1709 99.3086 16.5801 99.0488 16.0469C98.7891 15.5146 98.3926 15.0576 97.9004 14.7217C97.4277 14.4297 96.8828 14.2754 96.3262 14.2754C95.7695 14.2754 95.2227 14.4297 94.75 14.7217C94.3066 15.041 93.9434 15.4619 93.6602 15.9717C93.3789 16.5293 93.2461 17.1484 93.2754 17.7715C93.2363 18.3623 93.3535 18.9531 93.6133 19.4854C93.873 20.0186 94.2695 20.4756 94.7598 20.8115C95.2344 21.1016 95.7207 21.2617 96.3262 21.2617Z" fill="#FF385C" fill-opacity="1.000000" fill-rule="nonzero"/>
</svg>
