<svg width="103.000000" height="32.000000" viewBox="0 0 103 32" fill="none" xmlns="http://www.w3.org/2000/svg" xmlns:xlink="http://www.w3.org/1999/xlink">
	<desc>
			Created with Pixso.
	</desc>
	<defs>
		<clipPath id="clip1_301">
			<rect id="Amazon Logo" width="103.000000" height="32.000000" fill="white" fill-opacity="0"/>
		</clipPath>
	</defs>
	<rect id="Amazon Logo" width="103.000000" height="32.000000" fill="#FFFFFF" fill-opacity="0"/>
	<g clip-path="url(#clip1_301)">
		<path id="path8" d="M63.9004 25.0244C57.9141 29.5732 49.2383 32 41.7695 32C31.2969 32 21.8672 28.0059 14.7344 21.3643C14.1738 20.8418 14.6758 20.1299 15.3477 20.5361C23.0469 25.1543 32.5645 27.9316 42.3965 27.9316C49.0273 27.9316 56.3223 26.5176 63.0312 23.582C64.043 23.1387 64.8906 24.2666 63.9004 25.0244Z" fill="#FF9900" fill-opacity="1.000000" fill-rule="evenodd"/>
		<path id="path10" d="M66.3887 22.0898C65.627 21.082 61.332 21.6143 59.4043 21.8496C58.8164 21.9238 58.7266 21.3965 59.2559 21.0176C62.6758 18.5352 68.2891 19.252 68.9453 20.084C69.5996 20.9209 68.7734 26.7217 65.5586 29.4902C65.0664 29.915 64.5957 29.6895 64.8145 29.125C65.5371 27.2666 67.1562 23.1025 66.3887 22.0898Z" fill="#FF9900" fill-opacity="1.000000" fill-rule="evenodd"/>
		<path id="path12" d="M59.5371 3.49512L59.5371 1.08203C59.5371 0.716797 59.8066 0.47168 60.1289 0.47168L70.6074 0.47168C70.9434 0.47168 71.2129 0.72168 71.2129 1.08203L71.2129 3.14844C71.209 3.49512 70.9258 3.94727 70.4238 4.66406L64.9941 12.6562C67.0117 12.6055 69.1406 12.915 70.9707 13.9775C71.3828 14.2188 71.4961 14.5693 71.5273 14.916L71.5273 17.4912C71.5273 17.8418 71.1504 18.2539 70.7559 18.041C67.5312 16.2979 63.25 16.1084 59.6855 18.0596C59.3223 18.2627 58.9414 17.8564 58.9414 17.5049L58.9414 15.0596C58.9414 14.667 58.9453 13.9961 59.3262 13.4004L65.6172 4.10059L60.1426 4.10059C59.8066 4.10059 59.5371 3.85547 59.5371 3.49512Z" fill="#000000" fill-opacity="1.000000" fill-rule="evenodd"/>
		<path id="path14" d="M21.3164 18.5498L18.1289 18.5498C17.8223 18.5264 17.5801 18.291 17.5586 17.9902L17.5586 1.12402C17.5586 0.786133 17.832 0.517578 18.1719 0.517578L21.1445 0.517578C21.4551 0.532227 21.7012 0.777344 21.7246 1.08203L21.7246 3.28711L21.7812 3.28711C22.5586 1.15625 24.0156 0.162109 25.9785 0.162109C27.9746 0.162109 29.2207 1.15625 30.1172 3.28711C30.8887 1.15625 32.6406 0.162109 34.5195 0.162109C35.8555 0.162109 37.3184 0.730469 38.209 2.00684C39.2188 3.42578 39.0117 5.4873 39.0117 7.29395L39.0078 17.9395C39.0078 18.2764 38.7344 18.5498 38.3926 18.5498L35.2109 18.5498C34.8926 18.5264 34.6367 18.2627 34.6367 17.9395L34.6367 9C34.6367 8.28809 34.6992 6.5127 34.5469 5.83789C34.3086 4.70605 33.5957 4.38672 32.6719 4.38672C31.9023 4.38672 31.0938 4.91797 30.7676 5.76855C30.4395 6.61914 30.4707 8.04297 30.4707 9L30.4707 17.9395C30.4707 18.2764 30.1973 18.5498 29.8574 18.5498L26.6738 18.5498C26.3516 18.5264 26.0996 18.2627 26.0996 17.9395L26.0957 9C26.0957 7.11816 26.3965 4.34961 24.1309 4.34961C21.8398 4.34961 21.9297 7.04883 21.9297 9L21.9297 17.9395C21.9297 18.2764 21.6562 18.5498 21.3164 18.5498L21.3164 18.5498Z" fill="#000000" fill-opacity="1.000000" fill-rule="evenodd"/>
		<path id="path16" d="M80.2324 0.162109C84.9629 0.162109 87.5234 4.34961 87.5234 9.6748C87.5234 14.8193 84.6934 18.9004 80.2324 18.9004C75.5879 18.9004 73.0586 14.7129 73.0586 9.49414C73.0586 4.24316 75.6191 0.162109 80.2324 0.162109ZM80.2598 3.60547C77.9102 3.60547 77.7617 6.90625 77.7617 8.96289C77.7617 11.0244 77.7305 15.4248 80.2324 15.4248C82.7031 15.4248 82.8184 11.875 82.8184 9.71191C82.8184 8.28809 82.7617 6.58691 82.3438 5.2373C81.9844 4.06348 81.2715 3.60547 80.2598 3.60547Z" fill="#000000" fill-opacity="1.000000" fill-rule="evenodd"/>
		<path id="path18" d="M93.6562 18.5498L90.4824 18.5498C90.1641 18.5264 89.9082 18.2627 89.9082 17.9395L89.9043 1.06836C89.9316 0.758789 90.1953 0.517578 90.5176 0.517578L93.4727 0.517578C93.752 0.532227 93.9805 0.725586 94.043 0.989258L94.043 3.56836L94.1016 3.56836C94.9922 1.2627 96.2441 0.162109 98.4453 0.162109C99.875 0.162109 101.27 0.693359 102.166 2.14941C103 3.49902 103 5.76855 103 7.40039L103 18.0176C102.965 18.3135 102.701 18.5498 102.387 18.5498L99.1895 18.5498C98.8984 18.5264 98.6562 18.3047 98.625 18.0176L98.625 8.85645C98.625 7.0127 98.8301 4.3125 96.6289 4.3125C95.8535 4.3125 95.1406 4.84863 94.7871 5.66309C94.3379 6.69336 94.2793 7.71973 94.2793 8.85645L94.2793 17.9395C94.2754 18.2764 93.998 18.5498 93.6562 18.5498L93.6562 18.5498Z" fill="#000000" fill-opacity="1.000000" fill-rule="evenodd"/>
		<path id="path28" d="M51.1836 10.4922C51.1836 11.7725 51.2148 12.8408 50.5879 13.9775C50.082 14.9023 49.2734 15.4707 48.3809 15.4707C47.1582 15.4707 46.4414 14.5098 46.4414 13.0898C46.4414 10.2891 48.875 9.78027 51.1836 9.78027L51.1836 10.4922ZM54.3984 18.5029C54.1875 18.6973 53.8828 18.7109 53.6445 18.5811C52.5879 17.6758 52.3945 17.2549 51.8164 16.3906C50.0684 18.2305 48.8262 18.7803 46.5605 18.7803C43.875 18.7803 41.791 17.0742 41.791 13.6592C41.791 10.9922 43.1895 9.1748 45.1895 8.28809C46.9199 7.50195 49.3359 7.36328 51.1836 7.14648L51.1836 6.7207C51.1836 5.93945 51.2422 5.01562 50.793 4.33984C50.4082 3.73438 49.6641 3.48535 49.0059 3.48535C47.7891 3.48535 46.709 4.12793 46.4453 5.45898C46.3906 5.75488 46.1797 6.0459 45.8887 6.05957L42.8008 5.71777C42.5391 5.65723 42.248 5.44043 42.3242 5.0293C43.0332 1.16504 46.4219 0 49.4531 0C51.0039 0 53.0312 0.424805 54.2559 1.63672C55.8066 3.12891 55.6582 5.12109 55.6582 7.28906L55.6582 12.4111C55.6582 13.9502 56.2773 14.625 56.8594 15.457C57.0625 15.7529 57.1074 16.1084 56.8477 16.3301C56.1973 16.8896 55.0391 17.9297 54.4023 18.5117L54.3984 18.5029L54.3984 18.5029Z" fill="#000000" fill-opacity="1.000000" fill-rule="evenodd"/>
		<path id="path30" d="M9.39258 10.4922C9.39258 11.7725 9.42383 12.8408 8.79688 13.9775C8.28906 14.9023 7.48828 15.4707 6.58984 15.4707C5.36719 15.4707 4.6543 14.5098 4.6543 13.0898C4.6543 10.2891 7.08789 9.78027 9.39258 9.78027L9.39258 10.4922ZM12.6074 18.5029C12.3965 18.6973 12.0918 18.7109 11.8535 18.5811C10.7969 17.6758 10.6074 17.2549 10.0254 16.3906C8.27734 18.2305 7.03906 18.7803 4.76953 18.7803C2.08984 18.7803 0 17.0742 0 13.6592C0 10.9922 1.4043 9.1748 3.39844 8.28809C5.12891 7.50195 7.54492 7.36328 9.39258 7.14648L9.39258 6.7207C9.39258 5.93945 9.45117 5.01562 9.00781 4.33984C8.61719 3.73438 7.87305 3.48535 7.21875 3.48535C6.00391 3.48535 4.91797 4.12793 4.6543 5.45898C4.59961 5.75488 4.38867 6.0459 4.10156 6.05957L1.00977 5.71777C0.748047 5.65723 0.460938 5.44043 0.533203 5.0293C1.24609 1.16504 4.63086 0 7.66211 0C9.21289 0 11.2402 0.424805 12.4648 1.63672C14.0156 3.12891 13.8672 5.12109 13.8672 7.28906L13.8672 12.4111C13.8672 13.9502 14.4863 14.625 15.0684 15.457C15.2754 15.7529 15.3203 16.1084 15.0605 16.3301C14.4102 16.8896 13.2539 17.9297 12.6172 18.5117L12.6074 18.5029L12.6074 18.5029Z" fill="#000000" fill-opacity="1.000000" fill-rule="evenodd"/>
	</g>
</svg>
