<svg width="123.000000" height="37.000000" viewBox="0 0 123 37" fill="none" xmlns="http://www.w3.org/2000/svg" xmlns:xlink="http://www.w3.org/1999/xlink">
	<desc>
			Created with Pixso.
	</desc>
	<defs>
		<clipPath id="clip1_257">
			<rect id="BookMyShow Logo" width="123.000000" height="37.000000" fill="white" fill-opacity="0"/>
		</clipPath>
	</defs>
	<rect id="BookMyShow Logo" width="123.000000" height="37.000000" fill="#FFFFFF" fill-opacity="0"/>
	<g clip-path="url(#clip1_257)">
		<path id="Vector" d="M77.1992 11.3105L75.1992 7.93066L71.6504 9.62109L69.6504 6.23047L66.0996 7.93066L64.1094 4.53027L60.5605 6.23047L58.5605 2.84082L55.0098 4.54102L53.0195 1.14062L49.459 2.84082L41.9297 27.3604L51.0801 30.1602C51.4238 29.0557 52.1523 28.1104 53.1348 27.4951C54.1152 26.8799 55.2832 26.6367 56.4277 26.8086C57.5723 26.9795 58.6191 27.5547 59.377 28.4307C60.1348 29.3057 60.5547 30.4229 60.5605 31.5811L60.5605 31.6807C60.5801 32.1211 60.5293 32.5605 60.4004 33.001L69.6992 35.8506L77.1992 11.3105Z" fill="#D61920" fill-opacity="1.000000" fill-rule="evenodd"/>
		<path id="Vector" d="M49.7812 25.3398C49.5488 25.3008 49.3398 25.1816 49.1895 25.002C49.0391 24.8213 48.957 24.5938 48.9609 24.3594L48.9609 12.3594C48.959 12.2275 48.9844 12.0967 49.0352 11.9756C49.084 11.8535 49.1582 11.7422 49.25 11.6494C49.3438 11.5566 49.4551 11.4824 49.5762 11.4326C49.6992 11.3828 49.8301 11.3584 49.9609 11.3594L58.6309 11.3594C59.1426 11.3584 59.6484 11.457 60.1211 11.6514C60.5938 11.8457 61.0215 12.1318 61.3848 12.4922C61.7461 12.8525 62.0352 13.2803 62.2305 13.752C62.4277 14.2227 62.5293 14.7285 62.5312 15.2393L62.5312 24.3594C62.5312 24.5068 62.498 24.6523 62.4355 24.7852C62.3711 24.918 62.2812 25.0361 62.166 25.1299C62.0527 25.2236 61.9199 25.291 61.7773 25.3271C61.6348 25.3633 61.4863 25.3672 61.3418 25.3398C61.1113 25.2988 60.9043 25.1787 60.7559 24.999C60.6074 24.8193 60.5273 24.5928 60.5312 24.3594L60.5312 15.249C60.5312 14.7451 60.3301 14.2627 59.9746 13.9062C59.6191 13.5498 59.1348 13.3496 58.6309 13.3496L56.7402 13.3496L56.7402 24.3496C56.7422 24.4834 56.7148 24.6162 56.6641 24.7402C56.6133 24.8633 56.5371 24.9756 56.4414 25.0693C56.3281 25.1826 56.1875 25.2656 56.0352 25.3125C55.8809 25.3604 55.7188 25.3691 55.5605 25.3398C55.3301 25.3008 55.1191 25.1816 54.9688 25.002C54.8184 24.8213 54.7383 24.5938 54.7402 24.3594L54.7402 13.3496L50.9609 13.3496L50.9609 24.3496C50.9629 24.4971 50.9297 24.6416 50.8691 24.7754C50.8066 24.9092 50.7168 25.0273 50.6035 25.1221C50.4902 25.2168 50.3594 25.2852 50.2168 25.3223C50.0742 25.3604 49.9258 25.3662 49.7812 25.3398ZM64.2012 30.5693C63.9688 30.5312 63.7559 30.4092 63.6055 30.2275C63.4551 30.0459 63.375 29.8154 63.3809 29.5791C63.3828 29.3174 63.4863 29.0654 63.6719 28.8799C63.8555 28.6914 64.1074 28.583 64.3711 28.5791C65.2207 28.5791 65.9512 28.0391 66.1914 27.2295L67.2207 23.7998L63.8516 12.5293C63.8105 12.4033 63.7969 12.2705 63.8066 12.1387C63.8184 12.0068 63.8574 11.8789 63.918 11.7617C63.9785 11.6445 64.0625 11.541 64.166 11.4561C64.2676 11.3721 64.3848 11.3086 64.5117 11.2695C64.7637 11.1992 65.0312 11.2295 65.2637 11.3516C65.4941 11.4746 65.668 11.6816 65.752 11.9297L68.252 20.3291L70.791 11.9297C70.9102 11.4697 71.4219 11.1592 71.9414 11.2598L72.0117 11.2695C72.5508 11.4395 72.8516 12.0098 72.6914 12.5391L69.2207 24.0996L68.1211 27.7998C67.875 28.5957 67.3848 29.2949 66.7207 29.7998C66.0469 30.3057 65.2246 30.5791 64.3809 30.5791C64.3203 30.582 64.2598 30.5781 64.2012 30.5693Z" fill="#FEFEFE" fill-opacity="1.000000" fill-rule="evenodd"/>
		<path id="Vector" d="M3.08008 23.1504L5.04102 23.1504C5.5625 23.1504 6.06445 22.9424 6.43359 22.5732C6.80273 22.2041 7.00977 21.7031 7.00977 21.1807L7.00977 15.4102C7.01172 15.1514 6.96094 14.8955 6.86328 14.6553C6.76562 14.416 6.62305 14.1982 6.43945 14.0146C6.25781 13.8301 6.04102 13.6846 5.80273 13.584C5.56445 13.4844 5.30859 13.4316 5.05078 13.4307L3.08008 13.4307L3.08008 23.1299L3.08008 23.1504ZM1.84961 25.21C1.60938 25.1699 1.39258 25.0449 1.23633 24.8574C1.08008 24.6709 0.996094 24.4336 1 24.1904L1 6.27051C0.998047 6.13281 1.02344 5.99707 1.07617 5.87012C1.12695 5.74316 1.20312 5.62793 1.30078 5.53027C1.41797 5.40918 1.5625 5.31836 1.72266 5.26562C1.88281 5.21289 2.05469 5.20117 2.2207 5.23047C2.7207 5.33008 3.08008 5.75 3.08008 6.26074L3.08008 11.3604L5.04102 11.3604C5.57227 11.3594 6.09766 11.4629 6.58984 11.665C7.08008 11.8672 7.52734 12.165 7.90234 12.54C8.2793 12.915 8.57812 13.3613 8.78125 13.8516C8.98438 14.3428 9.08984 14.8691 9.08984 15.4004L9.08984 21.1699C9.08789 22.2412 8.66016 23.2666 7.9043 24.0244C7.14648 24.7812 6.12109 25.208 5.05078 25.21L2.04102 25.21C1.97266 25.2139 1.90625 25.2109 1.83984 25.2002L1.84961 25.21Z" fill="#333545" fill-opacity="1.000000" fill-rule="evenodd"/>
		<path id="Vector" d="M16.1406 13.3496C16.0273 13.3301 15.9141 13.3193 15.8008 13.3193C15.541 13.3164 15.2832 13.3662 15.043 13.4639C14.8027 13.5615 14.584 13.707 14.4004 13.8906C14.2168 14.0742 14.0723 14.292 13.9746 14.5322C13.877 14.7725 13.8281 15.0303 13.8301 15.2891L13.8301 21.2998C13.8281 21.5586 13.8789 21.8154 13.9766 22.0547C14.0762 22.2949 14.2207 22.5117 14.4043 22.6953C14.5879 22.8789 14.8047 23.0234 15.0449 23.1221C15.2852 23.2207 15.541 23.2705 15.8008 23.2695C16.3223 23.2695 16.8242 23.0615 17.1934 22.6924C17.5625 22.3232 17.7695 21.8223 17.7695 21.2998L17.7695 15.2998C17.7695 14.3291 17.0801 13.5195 16.1406 13.3496ZM15.0898 25.2998C14.1523 25.1348 13.3027 24.6436 12.6914 23.9141C12.082 23.1836 11.748 22.2617 11.75 21.3096L11.75 15.2998C11.748 14.7676 11.8535 14.2402 12.0566 13.75C12.2617 13.2588 12.5605 12.8135 12.9395 12.4395C13.3164 12.0645 13.7617 11.7666 14.252 11.5645C14.7422 11.3613 15.2695 11.2578 15.8008 11.2598C16.8711 11.2598 17.8984 11.6855 18.6562 12.4424C19.4141 13.2002 19.8398 14.2275 19.8398 15.2998L19.8398 21.3096C19.8398 22.3896 19.4199 23.4092 18.6504 24.1797C18.2754 24.5537 17.832 24.8516 17.3418 25.0537C16.8535 25.2559 16.3301 25.3604 15.8008 25.3594C15.5625 25.3604 15.3242 25.3408 15.0898 25.2998ZM26.8906 13.3594C26.7773 13.3398 26.6641 13.3301 26.5508 13.3291C26.291 13.3271 26.0332 13.376 25.793 13.4736C25.5527 13.5723 25.334 13.7168 25.1504 13.9004C24.9668 14.084 24.8223 14.3018 24.7246 14.542C24.627 14.7822 24.5781 15.04 24.5801 15.2998L24.5801 21.3096C24.5781 21.5684 24.6289 21.8252 24.7266 22.0645C24.8262 22.3047 24.9707 22.5225 25.1543 22.7051C25.3379 22.8887 25.5547 23.0332 25.7949 23.1318C26.0352 23.2305 26.291 23.2803 26.5508 23.2793C26.8086 23.2803 27.0664 23.2305 27.3047 23.1318C27.5449 23.0332 27.7637 22.8887 27.9453 22.7051C28.1289 22.5225 28.2734 22.3047 28.373 22.0645C28.4707 21.8252 28.5215 21.5684 28.5195 21.3096L28.5195 15.2998C28.5195 14.3398 27.8301 13.5293 26.8906 13.3594ZM25.8398 25.2998C24.9043 25.1328 24.0566 24.6406 23.4492 23.9111C22.8398 23.1816 22.5078 22.2598 22.5098 21.3096L22.5098 15.2998C22.5117 14.71 22.6426 14.1279 22.8906 13.5947C23.1406 13.0605 23.5039 12.5879 23.9551 12.209C24.4062 11.8301 24.9355 11.5537 25.5039 11.4004C26.0742 11.2461 26.6699 11.2188 27.25 11.3193C28.1875 11.4824 29.0371 11.9707 29.6504 12.6982C30.2637 13.4268 30.5996 14.3477 30.5996 15.2998L30.5996 21.3096C30.6016 21.8438 30.4961 22.373 30.2891 22.8652C30.084 23.3584 29.7812 23.8047 29.4004 24.1797C29.0254 24.5537 28.582 24.8516 28.0918 25.0537C27.6035 25.2559 27.0801 25.3604 26.5508 25.3594C26.3105 25.3594 26.0703 25.3398 25.8398 25.2998ZM34.1094 25.3398C33.8691 25.2988 33.6523 25.1738 33.4961 24.9863C33.3398 24.7998 33.2559 24.5625 33.2598 24.3193L33.2598 6.26953C33.2598 5.98926 33.3594 5.71973 33.5605 5.5293C33.6777 5.41309 33.8223 5.32715 33.9805 5.27832C34.1387 5.22949 34.3066 5.21973 34.4707 5.24902C34.9707 5.3291 35.3398 5.75977 35.3398 6.26953L35.3398 16.9492L40.1191 11.5898C40.3594 11.3291 40.7207 11.209 41.0801 11.2695C41.2617 11.2998 41.4316 11.3779 41.5723 11.4971C41.7129 11.6152 41.8203 11.7686 41.8809 11.9424C41.9434 12.1162 41.957 12.3027 41.9199 12.4834C41.8848 12.6641 41.8027 12.832 41.6797 12.9697L38.0703 16.999L41.8008 23.8291C41.8672 23.9443 41.9102 24.0723 41.9277 24.2041C41.9453 24.3369 41.9355 24.4707 41.9004 24.5996C41.8613 24.7314 41.7969 24.8555 41.709 24.9619C41.6211 25.0684 41.5117 25.1562 41.3906 25.2197C41.1777 25.3408 40.9297 25.3838 40.6895 25.3398C40.541 25.3145 40.3984 25.2559 40.2734 25.1699C40.1504 25.083 40.0449 24.9707 39.9707 24.8398L36.6094 18.6592L35.3301 20.0693L35.3301 24.3193C35.3301 24.5957 35.2207 24.8594 35.0254 25.0547C34.8301 25.25 34.5664 25.3594 34.2891 25.3594C34.2207 25.3594 34.1602 25.3594 34.0898 25.3398L34.1094 25.3398ZM79.9199 25.3291C79.3574 25.2354 78.8242 25.0166 78.3555 24.6895C77.8887 24.3623 77.502 23.9355 77.2207 23.4395C77.082 23.1963 77.0469 22.9092 77.1191 22.6396C77.1992 22.3799 77.3691 22.1592 77.5996 22.0195C77.8145 21.9023 78.0605 21.8643 78.3008 21.9092C78.5996 21.959 78.8691 22.1396 79.0195 22.4092C79.2891 22.8691 79.7207 23.1689 80.25 23.2598C80.5234 23.3066 80.8047 23.292 81.0703 23.2158C81.3379 23.1396 81.584 23.0039 81.7891 22.8193C82.1895 22.4492 82.3906 21.9189 82.3398 21.3994C82.3281 21.1328 82.2559 20.873 82.125 20.6396C81.9941 20.4072 81.8105 20.208 81.5898 20.0596L78.7891 18.0693C78.334 17.749 77.9531 17.332 77.6777 16.8477C77.4004 16.3643 77.2344 15.8252 77.1895 15.2695C77.1543 14.709 77.2461 14.1475 77.459 13.6279C77.6719 13.1074 78 12.6436 78.4199 12.2695C78.8301 11.8887 79.3184 11.6045 79.8516 11.4365C80.3828 11.2695 80.9473 11.2227 81.5 11.2998C82.6797 11.499 83.6406 12.1797 84.1895 13.1396C84.3223 13.3789 84.3574 13.6611 84.2871 13.9258C84.2148 14.1904 84.0449 14.418 83.8105 14.5596C83.5977 14.6807 83.3496 14.7236 83.1094 14.6797C82.9609 14.6543 82.8184 14.5967 82.6934 14.5098C82.5703 14.4238 82.4668 14.3105 82.3906 14.1797C82.2637 13.9668 82.0938 13.7852 81.8906 13.6475C81.6855 13.5088 81.4531 13.417 81.2109 13.3799C80.9609 13.334 80.7051 13.3477 80.4609 13.4189C80.2188 13.4902 79.9961 13.6172 79.8105 13.7891C79.6289 13.96 79.4883 14.1689 79.3965 14.4004C79.3047 14.6318 79.2656 14.8809 79.2793 15.1299C79.3008 15.6191 79.5801 16.0996 80 16.3799L82.8008 18.3291C83.2754 18.6621 83.668 19.0996 83.9492 19.6074C84.2305 20.1143 84.3906 20.6797 84.4199 21.2598C84.4668 21.8359 84.377 22.416 84.1602 22.9521C83.9434 23.4883 83.6035 23.9668 83.1699 24.3496C82.748 24.7422 82.2422 25.0352 81.6934 25.208C81.1426 25.3809 80.5605 25.4297 79.9902 25.3496L79.9102 25.3291L79.9199 25.3291ZM87.9492 25.3594C87.709 25.3174 87.4922 25.1924 87.334 25.0059C87.1777 24.8193 87.0918 24.583 87.0898 24.3398L87.0898 6.28906C87.0879 6.15234 87.1152 6.0166 87.166 5.88965C87.2188 5.7627 87.2949 5.64746 87.3926 5.55078C87.4883 5.4541 87.6035 5.37793 87.7305 5.32617C87.8574 5.27441 87.9922 5.24805 88.1309 5.24902L88.3301 5.25977C88.8301 5.35938 89.1699 5.76953 89.1699 6.28906L89.1699 11.3896L91.1406 11.3896C91.6719 11.3877 92.1973 11.4922 92.6875 11.6943C93.1777 11.8965 93.625 12.1943 94 12.5693C94.375 12.9453 94.6719 13.3906 94.875 13.8818C95.0781 14.373 95.1816 14.8984 95.1797 15.4297L95.1797 24.3291C95.1816 24.4805 95.1484 24.6299 95.0859 24.7666C95.0215 24.9043 94.9297 25.0254 94.8145 25.123C94.6992 25.2197 94.5625 25.291 94.418 25.3301C94.2715 25.3691 94.1191 25.376 93.9707 25.3496C93.4707 25.2598 93.1094 24.8291 93.1094 24.3193L93.1094 15.4189C93.1094 15.1611 93.0586 14.9053 92.959 14.667C92.8613 14.4287 92.7148 14.2119 92.5332 14.0303C92.3496 13.8477 92.1328 13.7041 91.8926 13.6055C91.6543 13.5078 91.3984 13.458 91.1406 13.459L89.1699 13.459L89.1699 24.3291C89.1719 24.4814 89.1387 24.6318 89.0742 24.7695C89.0117 24.9072 88.918 25.0303 88.8008 25.127C88.6836 25.2246 88.5469 25.2949 88.4004 25.334C88.2539 25.3721 88.0996 25.3779 87.9492 25.3496L87.9492 25.3594ZM102.23 13.3691C101.947 13.3184 101.656 13.3301 101.377 13.4033C101.1 13.4775 100.84 13.6113 100.619 13.7969C100.398 13.9824 100.223 14.2139 100.102 14.4756C99.9805 14.7363 99.918 15.0215 99.9199 15.3096L99.9199 21.3193C99.918 21.5781 99.9688 21.834 100.066 22.0723C100.164 22.3115 100.309 22.5283 100.49 22.7119C100.672 22.8945 100.889 23.04 101.127 23.1396C101.365 23.2383 101.621 23.2891 101.881 23.2891C102.4 23.2891 102.9 23.0898 103.27 22.7197C103.455 22.5361 103.602 22.3184 103.701 22.0781C103.801 21.8379 103.852 21.5801 103.85 21.3193L103.85 15.2998C103.85 14.3398 103.17 13.5195 102.221 13.3594L102.23 13.3691ZM101.17 25.2891C100.234 25.125 99.3887 24.6348 98.7793 23.9062C98.1699 23.1787 97.8379 22.2588 97.8398 21.3096L97.8398 15.2998C97.8398 14.709 97.9688 14.126 98.2188 13.5908C98.4668 13.0557 98.8301 12.582 99.2812 12.2021C99.7344 11.8213 100.262 11.5449 100.832 11.3906C101.402 11.2363 101.998 11.209 102.58 11.3096C103.52 11.4727 104.371 11.9619 104.984 12.6924C105.598 13.4229 105.932 14.3457 105.93 15.2998L105.93 21.3096C105.93 21.8418 105.824 22.3691 105.619 22.8604C105.412 23.3516 105.111 23.7969 104.73 24.1689C104.271 24.6299 103.707 24.9727 103.088 25.168C102.469 25.3623 101.811 25.4043 101.17 25.2891Z" fill="#333545" fill-opacity="1.000000" fill-rule="evenodd"/>
		<path id="Vector" d="M121.9 12.5391C121.936 12.4121 121.943 12.2793 121.926 12.1494C121.908 12.0186 121.867 11.8936 121.801 11.7793C121.725 11.6582 121.627 11.5527 121.51 11.4707C121.393 11.3877 121.26 11.3301 121.121 11.2988C120.863 11.251 120.596 11.3018 120.375 11.4434C120.154 11.585 119.994 11.8047 119.93 12.0596C119.93 12.1094 118.811 16.6191 117.93 20.0488L117.91 20.1191L117.891 20.0488L115.891 12.0693C115.852 11.874 115.754 11.6963 115.611 11.5586C115.469 11.4209 115.287 11.3301 115.09 11.2988C115.031 11.2881 114.971 11.2812 114.91 11.2793C114.451 11.2793 114.051 11.5996 113.92 12.0596C113.91 12.1094 112.791 16.6191 111.92 20.0488L111.9 20.1191L111.881 20.0488C111.031 16.6191 109.881 12.1094 109.881 12.0596C109.834 11.8682 109.732 11.6943 109.588 11.5596C109.445 11.4248 109.264 11.334 109.07 11.2988C108.904 11.2695 108.732 11.2822 108.572 11.335C108.412 11.3887 108.268 11.4805 108.15 11.6035C108.035 11.7266 107.951 11.877 107.908 12.04C107.863 12.2031 107.861 12.375 107.9 12.5391L110.91 24.5693C110.967 24.79 111.096 24.9854 111.273 25.126C111.453 25.2676 111.674 25.3457 111.9 25.3496C112.391 25.3496 112.781 25.0293 112.881 24.5693L114.881 16.5791L114.91 16.5098L114.93 16.5791C115.811 20.0488 116.93 24.5791 116.93 24.5791C116.99 24.7959 117.117 24.9873 117.295 25.125C117.471 25.2637 117.686 25.3428 117.91 25.3496C118.141 25.3564 118.367 25.2822 118.547 25.1396C118.729 24.9971 118.854 24.7949 118.9 24.5693L121.9 12.5391Z" fill="#333545" fill-opacity="1.000000" fill-rule="evenodd"/>
	</g>
</svg>
