<svg width="99.876953" height="30.158203" viewBox="0 0 99.877 30.1582" fill="none" xmlns="http://www.w3.org/2000/svg" xmlns:xlink="http://www.w3.org/1999/xlink">
	<desc>
			Created with Pixso.
	</desc>
	<defs/>
	<path id="polygon19" d="M74.3633 29.1025L82.7031 19.8662L74.3633 10.6279L83.1621 10.6279L87.293 15.1152L91.2695 10.6279L99.7617 10.6279L91.4629 19.8281L99.877 29.1025L91.041 29.1025L86.9473 24.5781L82.8945 29.1025L74.3633 29.1025Z" fill="#FF6600" fill-opacity="1.000000" fill-rule="nonzero"/>
	<path id="polygon21" d="M74.3633 6.48633L64.918 6.48633L64.918 10.6279L74.3633 10.6279L74.3633 16.8691L64.918 16.8691L64.918 22.5977L74.3633 22.5977L74.3633 29.1025L57.9766 29.1025L57.9766 0L74.3633 0L74.3633 6.48633Z" fill="#FF6600" fill-opacity="1.000000" fill-rule="nonzero"/>
	<path id="path23" d="M51.0645 0L51.0645 11.9102L50.9883 11.9102C49.457 10.1758 47.5449 9.57324 45.3262 9.57324C40.7812 9.57324 37.3574 12.6191 36.1562 16.6455C34.7852 12.209 31.252 9.49023 26.0098 9.49023C21.7539 9.49023 18.3926 11.373 16.6387 14.4424L16.6387 10.6279L7.8418 10.6279L7.8418 6.4873L17.4434 6.4873L17.4434 0L0 0L0 29.1025L7.8418 29.1025L7.8418 16.8691L15.6582 16.8691C15.4258 17.7676 15.3008 18.7295 15.3008 19.7451C15.3008 25.8154 20.0059 30.0752 26.0098 30.0752C31.0586 30.0752 34.3867 27.7393 36.1465 23.4785L29.4258 23.4785C28.5176 24.7588 27.8281 25.1387 26.0098 25.1387C23.9023 25.1387 22.0859 23.3262 22.0859 21.1777L35.7695 21.1777C36.3633 26 40.1738 30.1582 45.4043 30.1582C47.6582 30.1582 49.7246 29.0645 50.9883 27.2178L51.0645 27.2178L51.0645 29.1016L57.9766 29.1016L57.9766 0L51.0645 0ZM22.3047 16.9561C22.7402 15.1074 24.1953 13.8994 26.0098 13.8994C28.0098 13.8994 29.3887 15.0703 29.752 16.9561C29.9062 16.9561 22.3047 16.9561 22.3047 16.9561ZM46.8691 24.6709C44.3203 24.6709 42.7363 22.3311 42.7363 19.8867C42.7363 17.2744 44.1133 14.7627 46.8691 14.7627C49.7246 14.7627 50.8613 17.2744 50.8613 19.8867C50.8613 22.3643 49.6562 24.6709 46.8691 24.6709Z" fill="#652C8F" fill-opacity="1.000000" fill-rule="nonzero"/>
</svg>
