<svg width="95.000000" height="32.000000" viewBox="0 0 95 32" fill="none" xmlns="http://www.w3.org/2000/svg" xmlns:xlink="http://www.w3.org/1999/xlink">
	<desc>
			Created with Pixso.
	</desc>
	<defs>
		<clipPath id="clip1_248">
			<rect id="Google Logo" width="95.000000" height="32.000000" fill="white" fill-opacity="0"/>
		</clipPath>
	</defs>
	<rect id="Google Logo" width="95.000000" height="32.000000" fill="#FFFFFF" fill-opacity="0"/>
	<g clip-path="url(#clip1_248)">
		<path id="Vector" d="M40.4277 16.4102C40.4277 20.8516 36.9375 24.125 32.6562 24.125C28.373 24.125 24.8848 20.8516 24.8848 16.4102C24.8848 11.9375 28.373 8.69531 32.6562 8.69531C36.9375 8.69531 40.4277 11.9375 40.4277 16.4102ZM37.0254 16.4102C37.0254 13.6348 35.0039 11.7354 32.6562 11.7354C30.3086 11.7354 28.2871 13.6348 28.2871 16.4102C28.2871 19.1582 30.3086 21.085 32.6562 21.085C35.0039 21.085 37.0254 19.1543 37.0254 16.4102Z" fill="#EA4335" fill-opacity="1.000000" fill-rule="nonzero"/>
		<path id="Vector" d="M57.1934 16.4102C57.1934 20.8516 53.7031 24.125 49.4219 24.125C45.1387 24.125 41.6504 20.8516 41.6504 16.4102C41.6504 11.9404 45.1387 8.69531 49.4219 8.69531C53.7031 8.69531 57.1934 11.9375 57.1934 16.4102ZM53.791 16.4102C53.791 13.6348 51.7695 11.7354 49.4219 11.7354C47.0742 11.7354 45.0527 13.6348 45.0527 16.4102C45.0527 19.1582 47.0742 21.085 49.4219 21.085C51.7695 21.085 53.791 19.1543 53.791 16.4102Z" fill="#FBBC05" fill-opacity="1.000000" fill-rule="nonzero"/>
		<path id="Vector" d="M73.2598 9.16113L73.2598 23.0117C73.2598 28.709 69.8848 31.0361 65.8965 31.0361C62.1426 31.0361 59.8828 28.5352 59.0293 26.4902L61.9922 25.2627C62.5195 26.5176 63.8105 28 65.8926 28C68.4453 28 70.0273 26.4307 70.0273 23.4775L70.0273 22.3682L69.9102 22.3682C69.1484 23.3037 67.6816 24.1211 65.8301 24.1211C61.957 24.1211 58.4082 20.7617 58.4082 16.4375C58.4082 12.083 61.957 8.69531 65.8301 8.69531C67.6777 8.69531 69.1445 9.5127 69.9102 10.4209L70.0273 10.4209L70.0273 9.16504L73.2598 9.16504L73.2598 9.16113ZM70.2695 16.4375C70.2695 13.7217 68.4492 11.7354 66.1348 11.7354C63.7871 11.7354 61.8203 13.7217 61.8203 16.4375C61.8203 19.127 63.7871 21.085 66.1348 21.085C68.4492 21.085 70.2695 19.127 70.2695 16.4375Z" fill="#4285F4" fill-opacity="1.000000" fill-rule="nonzero"/>
		<path id="Vector" d="M78.584 1.04297L78.584 23.6514L75.2656 23.6514L75.2656 1.04297L78.584 1.04297Z" fill="#34A853" fill-opacity="1.000000" fill-rule="nonzero"/>
		<path id="Vector" d="M91.5156 18.9502L94.1562 20.7031C93.3027 21.958 91.25 24.1221 87.7012 24.1221C83.3008 24.1221 80.0137 20.7344 80.0137 16.4072C80.0137 11.8193 83.3281 8.69238 87.3203 8.69238C91.3398 8.69238 93.3066 11.8789 93.9492 13.6006L94.3027 14.4766L83.9473 18.748C84.7383 20.2959 85.9727 21.085 87.7012 21.085C89.4336 21.085 90.6348 20.2363 91.5156 18.9502ZM83.3867 16.1738L90.3105 13.3115C89.9297 12.3477 88.7832 11.6768 87.4355 11.6768C85.707 11.6768 83.3008 13.1963 83.3867 16.1738Z" fill="#EA4335" fill-opacity="1.000000" fill-rule="nonzero"/>
		<path id="Vector" d="M12.3242 14.4043L12.3242 11.1309L23.4004 11.1309C23.5078 11.7012 23.5645 12.376 23.5645 13.1064C23.5645 15.5625 22.8906 18.5986 20.7168 20.7627C18.6055 22.9541 15.9043 24.1221 12.3281 24.1221C5.69922 24.1221 0.125 18.7451 0.125 12.1436C0.125 5.54102 5.69922 0.164062 12.3281 0.164062C15.9961 0.164062 18.6074 1.59668 20.5703 3.46484L18.252 5.77441C16.8438 4.45996 14.9375 3.4375 12.3242 3.4375C7.48438 3.4375 3.69727 7.32227 3.69727 12.1436C3.69727 16.9639 7.48438 20.8496 12.3242 20.8496C15.4648 20.8496 17.2539 19.5938 18.3984 18.4531C19.3281 17.5273 19.9395 16.2061 20.1797 14.4004L12.3242 14.4043Z" fill="#4285F4" fill-opacity="1.000000" fill-rule="nonzero"/>
	</g>
</svg>
