<svg width="122.000000" height="26.000000" viewBox="0 0 122 26" fill="none" xmlns="http://www.w3.org/2000/svg" xmlns:xlink="http://www.w3.org/1999/xlink">
	<desc>
			Created with Pixso.
	</desc>
	<defs>
		<clipPath id="clip1_267">
			<rect id="Microsoft Logo" width="122.000000" height="26.000000" fill="white" fill-opacity="0"/>
		</clipPath>
	</defs>
	<rect id="Microsoft Logo" width="122.000000" height="26.000000" fill="#FFFFFF" fill-opacity="0"/>
	<g clip-path="url(#clip1_267)">
		<path id="Vector" d="M43.0645 14.9746L42.3379 17.0303L42.2754 17.0303C42.1543 16.5674 41.9336 15.8613 41.5703 15.0146L37.6719 5.24023L33.8535 5.24023L33.8535 20.8193L36.3789 20.8193L36.3789 11.2061C36.3789 10.6016 36.3789 9.91602 36.3574 9.06934C36.3379 8.64648 36.2969 8.32324 36.2773 8.08203L36.3379 8.08203C36.459 8.68652 36.5996 9.12988 36.7012 9.41211L41.3867 20.7793L43.166 20.7793L47.8105 9.31152C47.9121 9.04883 48.0137 8.52539 48.1133 8.08203L48.1738 8.08203C48.1133 9.23047 48.0742 10.2588 48.0527 10.8838L48.0527 20.7598L50.7402 20.7598L50.7402 5.19922L47.0625 5.19922L43.0645 14.9746ZM53.2852 9.59375L55.9102 9.59375L55.9102 20.7598L53.2852 20.7598L53.2852 9.59375ZM54.6172 4.87695C54.1738 4.87695 53.8105 5.03809 53.5059 5.32031C53.2031 5.60254 53.043 5.96582 53.043 6.40918C53.043 6.83203 53.2031 7.19531 53.5059 7.47754C53.8105 7.75977 54.1738 7.90039 54.6172 7.90039C55.0625 7.90039 55.4453 7.73926 55.7285 7.47754C56.0312 7.19531 56.1934 6.83203 56.1934 6.40918C56.1934 5.98535 56.0312 5.62305 55.7285 5.32031C55.4668 5.03809 55.082 4.87695 54.6172 4.87695ZM65.2227 9.49219C64.7363 9.3916 64.2324 9.33105 63.748 9.33105C62.5566 9.33105 61.4648 9.59375 60.5566 10.1172C59.6465 10.6416 58.9199 11.3672 58.4551 12.2744C57.9707 13.2012 57.7285 14.2695 57.7285 15.499C57.7285 16.5674 57.9707 17.5146 58.4355 18.3809C58.9004 19.2275 59.5469 19.9131 60.4141 20.376C61.2422 20.8398 62.2129 21.082 63.3027 21.082C64.5547 21.082 65.627 20.8193 66.4746 20.3359L66.4941 20.3154L66.4941 17.8975L66.3945 17.9775C66.0098 18.2598 65.5664 18.502 65.1211 18.6426C64.6562 18.8047 64.2324 18.8848 63.8691 18.8848C62.8184 18.8848 61.9902 18.583 61.4043 17.917C60.7988 17.2725 60.4961 16.3857 60.4961 15.2773C60.4961 14.1279 60.7988 13.2217 61.4238 12.5566C62.0508 11.8906 62.8789 11.5488 63.8887 11.5488C64.7363 11.5488 65.6055 11.8311 66.3945 12.3945L66.4941 12.4756L66.4941 9.91602L66.4746 9.89551C66.1309 9.75488 65.748 9.59375 65.2227 9.49219ZM73.8867 9.41211C73.2402 9.41211 72.6348 9.61328 72.1094 10.0371C71.666 10.3994 71.3633 10.9238 71.0996 11.5488L71.0801 11.5488L71.0801 9.59375L68.4531 9.59375L68.4531 20.7598L71.0801 20.7598L71.0801 15.0557C71.0801 14.0879 71.2812 13.2822 71.7266 12.6973C72.1699 12.0928 72.7363 11.79 73.4219 11.79C73.666 11.79 73.9082 11.8506 74.2109 11.8906C74.4941 11.9717 74.6953 12.0527 74.8359 12.1533L74.9375 12.2334L74.9375 9.61328L74.877 9.59375C74.6953 9.47266 74.332 9.41211 73.8867 9.41211ZM81.0371 9.35156C79.1992 9.35156 77.7246 9.89551 76.6953 10.9639C75.6445 12.0322 75.1387 13.5039 75.1387 15.3574C75.1387 17.0908 75.6641 18.502 76.6738 19.5303C77.6855 20.5381 79.0586 21.0615 80.7754 21.0615C82.5723 21.0615 84.0059 20.5176 85.0371 19.4287C86.0879 18.3408 86.5918 16.8896 86.5918 15.0957C86.5918 13.3223 86.1074 11.9111 85.1172 10.8838C84.168 9.85547 82.7754 9.35156 81.0371 9.35156ZM83.1387 17.9375C82.6543 18.5625 81.8867 18.8643 80.9375 18.8643C79.9863 18.8643 79.2207 18.5625 78.6738 17.8975C78.1289 17.2725 77.8672 16.3652 77.8672 15.2168C77.8672 14.0273 78.1484 13.1201 78.6738 12.4756C79.2207 11.8311 79.9668 11.5078 80.916 11.5078C81.8457 11.5078 82.5723 11.8105 83.0977 12.4355C83.623 13.0605 83.9062 13.9668 83.9062 15.1562C83.8652 16.3652 83.6426 17.3125 83.1387 17.9375ZM92.4492 14.2295C91.6211 13.8867 91.0957 13.624 90.8535 13.4023C90.6523 13.2012 90.5508 12.9189 90.5508 12.5566C90.5508 12.2539 90.6719 11.9512 90.9746 11.75C91.2793 11.5488 91.6211 11.4473 92.127 11.4473C92.5703 11.4473 93.0352 11.5283 93.4805 11.6494C93.9238 11.7705 94.3281 11.9512 94.6523 12.1934L94.752 12.2744L94.752 9.81543L94.6914 9.79492C94.3887 9.67383 93.9844 9.55273 93.5 9.45215C93.0156 9.37207 92.5703 9.33105 92.207 9.33105C90.9551 9.33105 89.9258 9.63379 89.1172 10.2988C88.3086 10.9238 87.9258 11.7705 87.9258 12.7578C87.9258 13.2822 88.0059 13.7451 88.1875 14.1279C88.3691 14.5117 88.6328 14.874 88.9961 15.1768C89.3594 15.459 89.8848 15.7812 90.6113 16.083C91.2168 16.3457 91.6816 16.5469 91.9648 16.708C92.248 16.8691 92.4297 17.0508 92.5703 17.1914C92.6719 17.3535 92.7324 17.5547 92.7324 17.8164C92.7324 18.5625 92.168 18.9248 91.0156 18.9248C90.5723 18.9248 90.1074 18.8447 89.5605 18.6631C89.0156 18.4814 88.5117 18.2197 88.0879 17.917L87.9863 17.8369L87.9863 20.3965L88.0469 20.417C88.4297 20.5977 88.8945 20.7188 89.4609 20.8604C90.0254 20.9609 90.5312 21.041 90.9746 21.041C92.3281 21.041 93.4395 20.7393 94.2266 20.0742C95.0352 19.4287 95.459 18.6025 95.459 17.5342C95.459 16.7891 95.2578 16.124 94.8125 15.6201C94.2266 15.1357 93.5 14.6318 92.4492 14.2295ZM102.387 9.35156C100.549 9.35156 99.0742 9.89551 98.0449 10.9639C97.0156 12.0322 96.4902 13.5039 96.4902 15.3574C96.4902 17.0908 97.0156 18.502 98.0254 19.5303C99.0352 20.5381 100.408 21.0615 102.125 21.0615C103.922 21.0615 105.357 20.5176 106.387 19.4287C107.438 18.3408 107.941 16.8896 107.941 15.0957C107.941 13.3223 107.457 11.9111 106.467 10.8838C105.518 9.85547 104.125 9.35156 102.387 9.35156ZM104.469 17.9375C103.982 18.5625 103.215 18.8643 102.266 18.8643C101.297 18.8643 100.549 18.5625 100.004 17.8975C99.459 17.2725 99.1953 16.3652 99.1953 15.2168C99.1953 14.0273 99.4785 13.1201 100.004 12.4756C100.549 11.8311 101.297 11.5078 102.246 11.5078C103.154 11.5078 103.902 11.8105 104.428 12.4355C104.953 13.0605 105.236 13.9668 105.236 15.1562C105.236 16.3652 104.973 17.3125 104.469 17.9375ZM121.98 11.75L121.98 9.59375L119.334 9.59375L119.334 6.28809L119.254 6.30859L116.748 7.05371L116.688 7.07422L116.688 9.59375L112.729 9.59375L112.729 8.18262C112.729 7.53809 112.891 7.03418 113.174 6.71094C113.457 6.38867 113.881 6.22754 114.406 6.22754C114.77 6.22754 115.152 6.30859 115.578 6.48926L115.678 6.5498L115.678 4.27246L115.617 4.25195C115.254 4.13184 114.77 4.05078 114.143 4.05078C113.355 4.05078 112.668 4.23242 112.043 4.53418C111.416 4.87695 110.951 5.34082 110.609 5.96582C110.266 6.57031 110.084 7.25586 110.084 8.04102L110.084 9.59375L108.246 9.59375L108.246 11.7295L110.084 11.7295L110.084 20.7598L112.729 20.7598L112.729 11.75L116.688 11.75L116.688 17.4941C116.688 19.8525 117.799 21.041 120.021 21.041C120.385 21.041 120.768 20.9814 121.133 20.9209C121.516 20.8398 121.799 20.7393 121.961 20.6582L121.98 20.6387L121.98 18.4814L121.879 18.5625C121.717 18.6631 121.576 18.7441 121.334 18.8047C121.133 18.8643 120.949 18.8848 120.809 18.8848C120.283 18.8848 119.92 18.7637 119.658 18.4619C119.416 18.1797 119.293 17.7158 119.293 17.0303L119.293 11.75L121.98 11.75Z" fill="#737373" fill-opacity="1.000000" fill-rule="nonzero"/>
		<path id="Vector" d="M0 0L12.3809 0L12.3809 12.3555L0 12.3555L0 0Z" fill="#F25022" fill-opacity="1.000000" fill-rule="nonzero"/>
		<path id="Vector" d="M13.6738 0L26.0547 0L26.0547 12.3555L13.6738 12.3555L13.6738 0Z" fill="#7FBA00" fill-opacity="1.000000" fill-rule="nonzero"/>
		<path id="Vector" d="M0 13.6445L12.3809 13.6445L12.3809 26L0 26L0 13.6445Z" fill="#00A4EF" fill-opacity="1.000000" fill-rule="nonzero"/>
		<path id="Vector" d="M13.6738 13.6445L26.0547 13.6445L26.0547 26L13.6738 26L13.6738 13.6445Z" fill="#FFB900" fill-opacity="1.000000" fill-rule="nonzero"/>
	</g>
</svg>
