<svg width="98.000000" height="34.000000" viewBox="0 0 98 34" fill="none" xmlns="http://www.w3.org/2000/svg" xmlns:xlink="http://www.w3.org/1999/xlink">
	<desc>
			Created with Pixso.
	</desc>
	<defs>
		<clipPath id="clip1_293">
			<rect id="OLA logo" width="98.000000" height="34.000000" fill="white" fill-opacity="0"/>
		</clipPath>
	</defs>
	<rect id="OLA logo" width="98.000000" height="34.000000" fill="#FFFFFF" fill-opacity="0"/>
	<g clip-path="url(#clip1_293)">
		<path id="Vector" d="M86.375 15.8408L80.1387 26.6748L74.8164 26.6963L86.375 6.30371L97.8906 26.6963L92.4844 26.6963L86.375 15.8398L86.375 15.8408ZM69.5801 21.9795L75.541 21.9795L72.7734 26.6963L65.0059 26.6963L65.0254 20.9531L65.0254 6.42871L69.6035 6.42871L69.582 21.9795L69.5801 21.9795ZM53.2344 6.43066C58.918 6.45117 63.5156 10.9775 63.4941 16.5732C63.4727 22.1475 58.875 26.6748 53.1914 26.6748C47.5293 26.6543 42.9316 22.1279 42.9316 16.5312C42.9531 10.9561 47.5508 6.43066 53.2344 6.43066ZM53.2129 21.96C56.2559 21.96 58.7031 19.5488 58.7031 16.5732C58.7266 13.5977 56.2559 11.166 53.2344 11.166C50.2109 11.1445 47.7422 13.5762 47.7422 16.5527C47.7207 19.5273 50.1895 21.96 53.2129 21.96L53.2129 21.96ZM34.4609 14.9629C34.3984 14.124 34.1836 13.0137 33.8652 11.9453C33.207 9.74023 32.0645 7.71191 30.5234 6.01367C29.7129 5.13379 28.7988 4.31543 27.4355 3.35254C26.3965 2.83496 25.373 2.2832 24.3711 1.69727C23.7109 1.31934 22.9238 0.857422 21.8809 0.522461C20.6445 0.228516 19.3828 0.0673828 18.1133 0.0410156C16.8789 -0.000976562 15.6445 0.105469 14.4512 0.334961C13.1953 0.543945 12.1523 0.878906 10.7695 1.21484C7.63867 2.57617 5.21289 4.62988 3.12695 7.35547C-4.15234 17.6035 2.42578 31.96 14.5801 33.6572C16.5801 33.9297 18.582 33.8242 20.4746 33.3848L21.8164 33.0293C21.8594 33.0078 21.9238 32.9863 21.9648 32.9863L23.498 32.3994C23.582 32.3574 23.6465 32.3359 23.7324 32.2949L24.3711 32.001C25.5957 31.3916 26.7461 30.6396 27.7969 29.7598C26.8398 30.6367 25.7988 31.415 24.6895 32.085L24.7539 32.1279C24.9668 32.0645 25.1582 32.001 25.3711 31.96C25.3711 31.96 25.3711 32.2949 25.3281 32.2324C24.9883 32.4834 25.5215 32.2529 26.2012 31.8965C26.8828 31.54 27.543 31.0996 28.1387 30.5967C29.0117 29.8633 29.7773 29.0664 30.8633 27.7686C31.9688 25.8184 33.3535 24.1211 33.9922 21.8369C34.2051 21.2285 34.3965 20.5166 34.5254 19.7822C34.6523 19.0498 34.7383 18.2949 34.7383 17.5195C34.7168 16.7441 34.6309 15.9473 34.4609 14.9629ZM18.709 32.1904C22.4336 31.6025 25.5625 29.5293 28.1172 26.6992C28.8203 25.6719 29.373 24.7285 30.0547 23.7021C30.9062 21.6055 30.8418 19.7412 31.1172 18.4219C31.459 16.0312 30.6504 14.1035 29.9688 12.0498C28.9258 9.66016 27.543 7.87988 25.1152 6.49609C18.9844 2.68164 10.6406 3.75 6.66211 9.45117C6.64062 9.45117 6.5332 9.59766 6.32031 9.89062C6.59766 8.71777 7.30078 8.02637 8.00195 7.35449C10.0879 5.63672 12.5156 4.27344 15.2812 3.60352C18.4121 3.26855 21.5176 3.60352 24.3066 4.96582C28.4805 7.35449 31.2461 11.1074 31.9492 15.5488L31.9492 19.6572C31.0762 26.3848 25.3281 31.499 18.709 32.1904ZM34.0137 16.8906C33.8652 7.04102 24.1367 0.397461 14.6641 1.73926C11.8984 2.42969 8.875 3.81348 6.72461 5.74219C5.68164 6.43262 5.19336 7.71191 4.14844 8.73828C-0.0234375 14.8789 0.701172 22.7383 5.89453 27.5176C6.56055 28.1816 7.27148 28.7979 8.02344 29.3623C3.68164 26.7412 1.72266 22.7793 1.04102 17.9609C1.04102 16.2412 1.38281 14.5439 1.74414 12.8252C4.17188 5.30078 11.8125 -0.168945 20.1367 1.21484C21.5195 1.5498 22.9023 1.90625 24.3086 2.24219C26.0547 2.93262 27.7773 3.95996 29.1621 5.32324C30.5449 6.68457 31.5879 8.40332 32.6309 10.0996C33.334 11.4629 33.6738 13.1816 34.0156 14.5439C34.0781 15.3193 34.0781 16.1162 34.0156 16.8916L34.0137 16.8906Z" fill="#000000" fill-opacity="1.000000" fill-rule="evenodd"/>
		<path id="Vector" d="M25.3711 17.0381C25.3711 21.2725 21.8379 24.71 17.4746 24.71C13.1133 24.71 9.57812 21.2725 9.57812 17.0381C9.57812 12.8057 13.1113 9.36816 17.4746 9.36816C21.8379 9.36816 25.3711 12.8057 25.3711 17.0391L25.3711 17.0381Z" fill="#FFFFFF" fill-opacity="1.000000" fill-rule="evenodd"/>
		<path id="Vector" d="M25.416 15.7383C25.3086 15.1514 25.1387 14.6904 24.9688 14.041C24.2871 12.6152 23.2871 11.5049 21.9668 10.5615C17.0293 7.27246 10.2383 10.4365 9.51562 16.0537C9.24023 18.2754 10.0273 20.4131 11.4316 22.0479C11.0059 21.6074 10.5371 21.1475 10.2188 20.6221L10.1758 20.665C10.2188 20.79 10.3887 20.874 10.4316 21C10.4316 21 10.2598 21 10.3047 20.9785C10.1758 20.833 10.2832 21.0635 10.4727 21.377C10.6445 21.6914 10.8574 21.9854 11.1113 22.2578C11.4746 22.6562 11.8574 23.0117 12.4961 23.4941C13.4336 23.9756 14.2637 24.6045 15.3477 24.8975C15.6465 24.9834 15.9863 25.0654 16.3281 25.1289C16.6895 25.1924 17.0293 25.2139 17.4141 25.2139C17.7754 25.2139 18.1582 25.1709 18.627 25.0859C19.1094 25.0283 19.5859 24.9307 20.0527 24.7939C21.0938 24.4775 22.0527 23.9336 22.8633 23.2002C23.2676 22.8242 23.8418 22.3418 24.2891 21.7129C24.6504 21.001 24.6934 20.6436 24.8633 20.3291C25.0332 20.0146 25.2461 19.6592 25.3965 19.1768C25.5176 18.6045 25.5898 18.0225 25.6094 17.4375C25.5879 16.8506 25.5449 16.2842 25.418 15.7393L25.416 15.7383ZM20.3496 11.8408C21.0742 12.2598 21.1797 12.3223 20.7969 12.0498C21.3496 12.1758 21.6914 12.4902 22.0312 12.8047C22.8613 13.748 23.543 14.8584 23.8828 16.1367C24.0742 17.583 23.9258 19.0283 23.3086 20.3076C22.2012 22.2568 20.4355 23.5557 18.3281 23.9121C18.0938 23.9121 17.8379 23.9121 17.6035 23.9336C18.1992 23.8281 18.584 23.4512 19.668 23.0527C20.8379 22.6338 22.1582 20.6855 22.7988 19.5527C24.6719 16.4717 22.457 13.6221 20.3496 11.8408ZM16.3477 23.9531C13.1133 23.6191 10.623 20.957 10.2812 17.876C10.5781 19.5947 11.6016 20.915 12.9844 22.0889C13.4746 22.4033 14.1973 22.8428 14.6875 23.1572C15.5176 23.4717 16.0078 23.8076 16.8164 23.9541L16.3477 23.9541L16.3477 23.9531ZM25.0527 18.3584C24.9062 19.0088 24.7559 19.6367 24.6074 20.2871C24.2871 21.084 23.8203 21.9004 23.1816 22.5498C22.543 23.2002 21.7324 23.7031 20.9258 24.1846C20.2871 24.5195 19.4766 24.6875 18.8164 24.8545C18.4336 24.8965 17.9863 24.7295 17.6035 24.709C22.3301 24.582 25.5645 20.1611 24.8633 15.7803C24.5215 14.5029 23.8398 13.3906 23.0098 12.2803C22.6699 11.7988 22.0098 11.5049 21.5195 11.0225C18.5605 9.1582 14.6445 9.53516 12.4102 11.9873C12.0977 12.3096 11.8047 12.6523 11.5371 13.0137C12.7305 11.2529 14.6445 10.0176 16.9434 9.66016C17.7539 9.63965 18.584 9.78711 19.3906 9.93359C22.9688 11.0225 25.6289 14.5029 25.0527 18.3594L25.0527 18.3584Z" fill="#D7DF23" fill-opacity="1.000000" fill-rule="evenodd"/>
	</g>
</svg>
