<svg width="84.000000" height="32.000000" viewBox="0 0 84 32" fill="none" xmlns="http://www.w3.org/2000/svg" xmlns:xlink="http://www.w3.org/1999/xlink">
	<desc>
			Created with Pixso.
	</desc>
	<defs>
		<clipPath id="clip1_289">
			<rect id="OYO Logo" width="84.000000" height="32.000000" fill="white" fill-opacity="0"/>
		</clipPath>
	</defs>
	<rect id="OYO Logo" width="84.000000" height="32.000000" fill="#FFFFFF" fill-opacity="0"/>
	<g clip-path="url(#clip1_289)">
		<path id="Vector" d="M69.0645 30.6406C77.043 30.6406 83.5332 24.0439 83.5332 15.9365C83.5332 7.82422 77.043 1.23242 69.0645 1.23242C61.084 1.23242 54.5938 7.82422 54.5938 15.9365C54.5938 24.0439 61.084 30.6406 69.0645 30.6406ZM69.0645 10.6934C71.9062 10.6934 74.2227 13.0449 74.2227 15.9346C74.2227 18.8242 71.9062 21.1729 69.0625 21.1729C66.2168 21.1729 63.9043 18.8242 63.9043 15.9336C63.9043 13.04 66.2188 10.6904 69.0625 10.6904L69.0645 10.6934ZM14.4707 30.6406C22.4492 30.6406 28.9395 24.0439 28.9395 15.9365C28.9395 7.82422 22.4492 1.23242 14.4707 1.23242C6.49414 1.23242 0 7.82422 0 15.9365C0 24.0439 6.49414 30.6406 14.4707 30.6406ZM14.4707 10.6934C17.3145 10.6934 19.6289 13.0449 19.6289 15.9346C19.6289 18.8242 17.3145 21.1729 14.4707 21.1729C11.627 21.1729 9.31445 18.8242 9.31445 15.9336C9.31445 13.04 11.6289 10.6904 14.4707 10.6904L14.4707 10.6934ZM41.7598 10.3623L37.3164 1.4248L26.9141 1.4248L36.6309 20.9766L36.6309 30.1816L46.8887 30.1816L46.8887 20.9766L56.6055 1.4248L46.1992 1.4248L41.7598 10.3623L41.7598 10.3623Z" fill="#EE2E24" fill-opacity="1.000000" fill-rule="nonzero"/>
	</g>
</svg>
