<svg width="120.000000" height="28.000000" viewBox="0 0 120 28" fill="none" xmlns="http://www.w3.org/2000/svg" xmlns:xlink="http://www.w3.org/1999/xlink">
	<desc>
			Created with Pixso.
	</desc>
	<defs>
		<clipPath id="clip1_283">
			<rect id="Walmart Logo" width="120.000000" height="28.000000" fill="white" fill-opacity="0"/>
		</clipPath>
	</defs>
	<rect id="Walmart Logo" width="120.000000" height="28.000000" fill="#FFFFFF" fill-opacity="0"/>
	<g clip-path="url(#clip1_283)">
		<path id="Shape" d="M42.7051 9.95898L42.7051 11.5459L42.7539 11.5459C43.3262 10.6963 44.2773 9.69629 46.3867 9.69629C48.0293 9.69629 49.2871 10.5283 49.8262 11.7852L49.875 11.7852C50.3359 11.1494 50.8652 10.668 51.457 10.3281C52.1562 9.92383 52.9355 9.69238 53.918 9.69238C56.1387 9.69238 58.1055 11.1318 58.1055 14.7617L58.1055 21.6465L54.7188 21.6465L54.7188 15.2432C54.7188 13.4033 54.0527 12.3398 52.666 12.3398C51.6504 12.3398 50.9121 12.9785 50.6328 13.7646C50.5352 14.0352 50.4902 14.4033 50.4902 14.7129L50.4902 21.6494L47.1035 21.6494L47.1035 14.9834C47.1035 13.4209 46.4629 12.3359 45.0957 12.3359C44.002 12.3359 43.3145 13.1436 43.0352 13.835C42.9141 14.1299 42.877 14.4707 42.877 14.79L42.877 21.6465L39.4863 21.6465L39.4863 9.95898L42.7051 9.95898ZM75.5859 9.95898L75.5859 12.1641L75.6797 12.1641C76.3027 10.4785 77.7773 9.69629 79.0742 9.69629C79.4004 9.69629 79.5801 9.7207 79.8418 9.76953L79.8418 12.8311C79.5312 12.7891 79.2422 12.7471 78.8379 12.7471C77.3691 12.7471 76.3477 13.5469 76.0879 14.8008C76.0332 15.0605 76.0137 15.3408 76.0137 15.6641L76.0137 21.6494L72.5371 21.6494L72.5371 9.95898L75.5859 9.95898ZM84.5625 6.08691L84.5625 9.76562L87.5 9.76562L87.5 12.7432L84.5625 12.7432L84.5625 17.1348C84.5625 18.5566 84.9492 19.2451 86.0957 19.2451C86.6348 19.2451 87.0312 19.1816 87.377 19.1006L87.4219 21.5693C86.9609 21.7305 85.9785 21.9062 84.9824 21.9062C83.8105 21.9062 82.832 21.5234 82.2363 20.9297C81.5547 20.2529 81.2402 19.1436 81.2402 17.5635L81.2402 6.08691L84.5625 6.08691ZM37.127 21.6465L33.7539 21.6465L33.7539 6.08691L37.127 6.08691L37.127 21.6465ZM28.1348 17.4717C28.1348 17.6865 28.1172 17.9111 28.0527 18.1035C27.791 18.915 26.8945 19.5996 25.7793 19.5996C24.8457 19.5996 24.1035 19.1045 24.1035 18.0547C24.1035 16.4502 25.9922 16.0049 28.1387 16.0146L28.1387 17.4717L28.1348 17.4717ZM31.5039 14.6738C31.5039 12.0234 30.2969 9.69629 26.2168 9.69629C24.123 9.69629 22.459 10.2471 21.5527 10.7383L22.2168 12.8662C23.043 12.375 24.3672 11.9707 25.6172 11.9707C27.6895 11.9668 28.0273 13.0693 28.0273 13.7754L28.0273 13.9434C23.5117 13.9365 20.6621 15.4004 20.6621 18.3848C20.6621 20.207 22.1113 21.9131 24.6367 21.9131C26.1914 21.9131 27.4863 21.334 28.2656 20.4033L28.3418 20.4033C28.3418 20.4033 28.8574 22.4219 31.6973 21.6494C31.5488 20.8076 31.5 19.9121 31.5 18.834L31.5 14.6738L31.5039 14.6738ZM3.72461 6.08691C4.07227 7.7334 5.06055 12.5146 5.06055 12.5146C5.47656 14.4805 5.85938 16.542 6.14844 18.1709L6.20117 18.1709C6.48047 16.4395 6.92383 14.8008 7.39453 12.7715L9.0625 6.08691L12.752 6.08691L14.3105 12.9434C14.7188 14.8496 15.0449 16.3203 15.3047 18.0938L15.3535 18.0938C15.6328 16.3027 16 14.7725 16.4023 12.8135L17.9004 6.08691L21.4395 6.08691L17.0527 21.6465C14.2578 22.2188 13.1875 21.165 12.8047 19.4941C12.4238 17.8193 11.6738 14.6357 11.6738 14.6357C11.2871 12.8906 10.9883 11.6621 10.7773 9.87109L10.7266 9.87109C10.4258 11.6445 10.1113 12.8867 9.64648 14.6318L7.80664 21.6494C4.95312 22.1836 3.96289 21.3936 3.41602 19.248C2.94531 17.4121 0 6.09082 0 6.09082L3.72461 6.09082L3.72461 6.08691ZM66.918 17.4717C66.918 17.6865 66.8984 17.9111 66.8359 18.1035C66.5723 18.915 65.6777 19.5996 64.5605 19.5996C63.6289 19.5996 62.8867 19.1045 62.8867 18.0547C62.8867 16.4502 64.7754 16.0049 66.9219 16.0146L66.9219 17.4717L66.918 17.4717ZM70.2852 14.6738C70.2852 12.0234 69.0801 9.69629 65 9.69629C62.9043 9.69629 61.2422 10.2471 60.3359 10.7383L60.998 12.8662C61.8262 12.375 63.1484 11.9707 64.4004 11.9707C66.4688 11.9668 66.8086 13.0693 66.8086 13.7754L66.8086 13.9434C62.2988 13.9365 59.4473 15.4004 59.4473 18.3848C59.4473 20.207 60.9004 21.9131 63.4219 21.9131C64.9727 21.9131 66.2734 21.334 67.0488 20.4033L67.127 20.4033C67.127 20.4033 67.6445 22.4219 70.4844 21.6494C70.334 20.8076 70.2852 19.9121 70.2852 18.834L70.2852 14.6738Z" fill="#041E42" fill-opacity="1.000000" fill-rule="nonzero"/>
		<path id="Shape" d="M101.168 16.2871C101.5 16.8555 101.479 17.4902 101.123 17.7793L94.9922 21.999C94.3535 22.3623 93.3965 21.9219 92.8555 21.002C92.3105 20.0781 92.4062 19.0479 93.0449 18.6846L99.834 15.584C100.26 15.4219 100.836 15.7197 101.168 16.2871ZM109.238 16.2871C109.574 15.7197 110.145 15.4258 110.57 15.5801L117.363 18.6816C118.002 19.0439 118.096 20.0742 117.555 20.998C117.01 21.918 116.049 22.3545 115.414 21.9951L109.283 17.7754C108.932 17.4902 108.906 16.8525 109.238 16.2871ZM105.201 18.5752C105.869 18.5752 106.418 18.9121 106.492 19.3555L107.154 26.6807C107.154 27.4062 106.291 28 105.205 28C104.121 28 103.256 27.4062 103.256 26.6807L103.912 19.3555C103.986 18.9121 104.537 18.5752 105.201 18.5752ZM109.283 10.2246L115.414 6.00098C116.049 5.6377 117.01 6.07422 117.555 6.99805C118.096 7.92188 118.002 8.95215 117.363 9.31543L110.57 12.4199C110.145 12.5742 109.57 12.2803 109.238 11.7129C108.906 11.1445 108.932 10.5098 109.283 10.2246ZM99.834 12.4199L93.0449 9.31543C92.4102 8.95215 92.3145 7.92188 92.8555 6.99805C93.3965 6.07422 94.3555 5.6377 94.9922 6.00098L101.123 10.2246C101.479 10.5068 101.5 11.1445 101.168 11.7129C100.836 12.2803 100.26 12.5742 99.834 12.4199ZM103.912 8.64453L103.256 1.31934C103.256 0.59375 104.117 0 105.205 0C106.291 0 107.154 0.59375 107.154 1.31934L106.492 8.64453C106.418 9.08398 105.869 9.4248 105.201 9.4248C104.537 9.4248 103.986 9.08398 103.912 8.64453ZM119.213 21.9697L119.213 21.7861L119.381 21.7861C119.436 21.7861 119.473 21.8232 119.473 21.8779C119.473 21.9297 119.436 21.9697 119.381 21.9697L119.213 21.9697ZM119.074 22.3027C119.074 22.3213 119.088 22.3398 119.111 22.3398L119.182 22.3398C119.201 22.3398 119.219 22.3213 119.219 22.3027L119.219 22.0947L119.336 22.0947L119.428 22.3145C119.436 22.3291 119.447 22.3398 119.463 22.3398L119.549 22.3398C119.574 22.3398 119.594 22.3145 119.582 22.2881C119.549 22.2227 119.514 22.1533 119.48 22.083C119.537 22.0645 119.623 22.0098 119.623 21.8779C119.623 21.7383 119.508 21.6582 119.391 21.6582L119.111 21.6582C119.092 21.6582 119.074 21.6768 119.074 21.6943L119.074 22.3027ZM118.771 21.999C118.771 21.7021 119.018 21.46 119.32 21.46C119.623 21.46 119.869 21.6982 119.869 21.999C119.869 22.2959 119.627 22.5381 119.32 22.5381C119.014 22.5381 118.771 22.2959 118.771 21.999ZM118.641 21.999C118.641 22.3652 118.943 22.666 119.32 22.666C119.693 22.666 120 22.3652 120 21.999C120 21.6328 119.693 21.332 119.32 21.332C118.943 21.332 118.641 21.6328 118.641 21.999Z" fill="#FFC124" fill-opacity="1.000000" fill-rule="nonzero"/>
	</g>
</svg>
